<svg xmlns="http://www.w3.org/2000/svg" viewBox="0 0 1600 520" preserveAspectRatio="xMidYMid slice"><defs><linearGradient id="sky" x2="1" y2=".2"><stop stop-color="#384554"/><stop offset=".58" stop-color="#9e7d80"/><stop offset="1" stop-color="#384554"/></linearGradient><radialGradient id="glow"><stop stop-color="#d9d6c8" stop-opacity=".75"/><stop offset="1" stop-color="#d9d6c8" stop-opacity="0"/></radialGradient></defs><rect width="1600" height="520" fill="url(#sky)"/><circle cx="1157.5" cy="117" r="220.5" fill="url(#glow)" opacity=".35"/><circle cx="1157.5" cy="117" r="105" fill="#d9d6c8" opacity=".34"/><path d="M0 456 C260 344 360 424 610 383 S980 444 1210 369 S1470 389 1600 362 V520 H0Z" fill="#384554" opacity=".30"/><path d="M0 474 C290 400 530 446 760 398 S1320 464 1600 403 V520 H0Z" fill="#d9d6c8" opacity=".09"/><path d="M1353 259Q1365 241.0 1377 259Q1365 266.2 1353 259Z" fill="#d9d6c8" opacity=".30" transform="rotate(-30 1365 259)"/><path d="M1433 145Q1445 127.0 1457 145Q1445 152.2 1433 145Z" fill="#d9d6c8" opacity=".30" transform="rotate(56 1445 145)"/><path d="M693 274Q708 251.5 723 274Q708 283.0 693 274Z" fill="#d9d6c8" opacity=".30" transform="rotate(30 708 274)"/><path d="M1337 33Q1349 15.0 1361 33Q1349 40.2 1337 33Z" fill="#d9d6c8" opacity=".30" transform="rotate(66 1349 33)"/><path d="M886 291Q902 267.0 918 291Q902 300.6 886 291Z" fill="#d9d6c8" opacity=".30" transform="rotate(-63 902 291)"/><path d="M1170 271Q1177 260.5 1184 271Q1177 275.2 1170 271Z" fill="#d9d6c8" opacity=".30" transform="rotate(50 1177 271)"/><path d="M1197 341Q1207 326.0 1217 341Q1207 347.0 1197 341Z" fill="#d9d6c8" opacity=".30" transform="rotate(46 1207 341)"/><path d="M1216 376Q1229 356.5 1242 376Q1229 383.8 1216 376Z" fill="#d9d6c8" opacity=".30" transform="rotate(-8 1229 376)"/><path d="M872 317Q880 305.0 888 317Q880 321.8 872 317Z" fill="#d9d6c8" opacity=".30" transform="rotate(19 880 317)"/><path d="M882 395Q892 380.0 902 395Q892 401.0 882 395Z" fill="#d9d6c8" opacity=".30" transform="rotate(21 892 395)"/><path d="M686 133Q696 118.0 706 133Q696 139.0 686 133Z" fill="#d9d6c8" opacity=".30" transform="rotate(-5 696 133)"/><path d="M1311 170Q1322 153.5 1333 170Q1322 176.6 1311 170Z" fill="#d9d6c8" opacity=".30" transform="rotate(-49 1322 170)"/><path d="M1275 314Q1287 296.0 1299 314Q1287 321.2 1275 314Z" fill="#d9d6c8" opacity=".30" transform="rotate(74 1287 314)"/><path d="M1185 125Q1195 110.0 1205 125Q1195 131.0 1185 125Z" fill="#d9d6c8" opacity=".30" transform="rotate(-12 1195 125)"/><path d="M700 328Q717 302.5 734 328Q717 338.2 700 328Z" fill="#d9d6c8" opacity=".30" transform="rotate(-28 717 328)"/><path d="M957 199Q968 182.5 979 199Q968 205.6 957 199Z" fill="#d9d6c8" opacity=".30" transform="rotate(12 968 199)"/><path d="M1362 238Q1374 220.0 1386 238Q1374 245.2 1362 238Z" fill="#d9d6c8" opacity=".30" transform="rotate(47 1374 238)"/><path d="M1459 110Q1469 95.0 1479 110Q1469 116.0 1459 110Z" fill="#d9d6c8" opacity=".30" transform="rotate(65 1469 110)"/><path d="M954 294Q964 279.0 974 294Q964 300.0 954 294Z" fill="#d9d6c8" opacity=".30" transform="rotate(12 964 294)"/><path d="M1422 167Q1439 141.5 1456 167Q1439 177.2 1422 167Z" fill="#d9d6c8" opacity=".30" transform="rotate(31 1439 167)"/><path d="M1391 164Q1400 150.5 1409 164Q1400 169.4 1391 164Z" fill="#d9d6c8" opacity=".30" transform="rotate(12 1400 164)"/><path d="M1544 266Q1553 252.5 1562 266Q1553 271.4 1544 266Z" fill="#d9d6c8" opacity=".30" transform="rotate(-18 1553 266)"/><path d="M1192 363Q1201 349.5 1210 363Q1201 368.4 1192 363Z" fill="#d9d6c8" opacity=".30" transform="rotate(11 1201 363)"/><path d="M864 44Q881 18.5 898 44Q881 54.2 864 44Z" fill="#d9d6c8" opacity=".30" transform="rotate(50 881 44)"/><path d="M1512 52Q1528 28.0 1544 52Q1528 61.6 1512 52Z" fill="#d9d6c8" opacity=".30" transform="rotate(64 1528 52)"/><path d="M693 22Q701 10.0 709 22Q701 26.8 693 22Z" fill="#d9d6c8" opacity=".30" transform="rotate(51 701 22)"/><path d="M731 103Q748 77.5 765 103Q748 113.2 731 103Z" fill="#d9d6c8" opacity=".30" transform="rotate(64 748 103)"/><path d="M1088 107Q1101 87.5 1114 107Q1101 114.8 1088 107Z" fill="#d9d6c8" opacity=".30" transform="rotate(-59 1101 107)"/><path d="M715 155Q729 134.0 743 155Q729 163.4 715 155Z" fill="#d9d6c8" opacity=".30" transform="rotate(-15 729 155)"/><path d="M719 118Q728 104.5 737 118Q728 123.4 719 118Z" fill="#d9d6c8" opacity=".30" transform="rotate(-35 728 118)"/><path d="M1501 367Q1509 355.0 1517 367Q1509 371.8 1501 367Z" fill="#d9d6c8" opacity=".30" transform="rotate(33 1509 367)"/><path d="M728 383Q744 359.0 760 383Q744 392.6 728 383Z" fill="#d9d6c8" opacity=".30" transform="rotate(-20 744 383)"/><path d="M770 315Q990 255 1220 315T1620 295" fill="none" stroke="#d9d6c8" stroke-width="2" opacity=".16"/><path d="M770 360Q990 300 1220 360T1620 340" fill="none" stroke="#d9d6c8" stroke-width="2" opacity=".16"/><path d="M770 405Q990 345 1220 405T1620 385" fill="none" stroke="#d9d6c8" stroke-width="2" opacity=".16"/><path d="M620 520C870 320 1140 530 1600 313" fill="none" stroke="#d9d6c8" stroke-width="1.2" opacity=".16"/></svg>