<svg xmlns="http://www.w3.org/2000/svg" viewBox="0 0 1600 520" preserveAspectRatio="xMidYMid slice"><defs><linearGradient id="sky" x2="1" y2=".2"><stop stop-color="#4b5860"/><stop offset=".58" stop-color="#b5a777"/><stop offset="1" stop-color="#4b5860"/></linearGradient><radialGradient id="glow"><stop stop-color="#f5e0a1" stop-opacity=".75"/><stop offset="1" stop-color="#f5e0a1" stop-opacity="0"/></radialGradient></defs><rect width="1600" height="520" fill="url(#sky)"/><circle cx="1102.5" cy="117" r="220.5" fill="url(#glow)" opacity=".35"/><circle cx="1102.5" cy="117" r="105" fill="#f5e0a1" opacity=".34"/><path d="M0 444 C260 332 360 412 610 371 S980 432 1210 357 S1470 377 1600 350 V520 H0Z" fill="#4b5860" opacity=".30"/><path d="M0 462 C290 388 530 434 760 386 S1320 452 1600 391 V520 H0Z" fill="#f5e0a1" opacity=".09"/><path d="M650 205Q850 171 1040 205T1460 205T1800 205" fill="none" stroke="#f5e0a1" stroke-width="1" opacity="0.100"/><path d="M650 244Q850 210 1040 244T1460 244T1800 244" fill="none" stroke="#f5e0a1" stroke-width="2" opacity="0.112"/><path d="M650 268Q850 234 1040 268T1460 268T1800 268" fill="none" stroke="#f5e0a1" stroke-width="3" opacity="0.124"/><path d="M650 301Q850 267 1040 301T1460 301T1800 301" fill="none" stroke="#f5e0a1" stroke-width="1" opacity="0.136"/><path d="M650 328Q850 294 1040 328T1460 328T1800 328" fill="none" stroke="#f5e0a1" stroke-width="2" opacity="0.148"/><path d="M650 359Q850 325 1040 359T1460 359T1800 359" fill="none" stroke="#f5e0a1" stroke-width="3" opacity="0.160"/><path d="M650 399Q850 365 1040 399T1460 399T1800 399" fill="none" stroke="#f5e0a1" stroke-width="1" opacity="0.172"/><path d="M650 420Q850 386 1040 420T1460 420T1800 420" fill="none" stroke="#f5e0a1" stroke-width="2" opacity="0.184"/><path d="M650 455Q850 421 1040 455T1460 455T1800 455" fill="none" stroke="#f5e0a1" stroke-width="3" opacity="0.196"/><path d="M650 489Q850 455 1040 489T1460 489T1800 489" fill="none" stroke="#f5e0a1" stroke-width="1" opacity="0.208"/><path d="M650 519Q850 485 1040 519T1460 519T1800 519" fill="none" stroke="#f5e0a1" stroke-width="2" opacity="0.220"/><path d="M650 550Q850 516 1040 550T1460 550T1800 550" fill="none" stroke="#f5e0a1" stroke-width="3" opacity="0.232"/><circle cx="988" cy="118" r="5" fill="#f5e0a1" opacity=".3"/><circle cx="1159" cy="422" r="5" fill="#f5e0a1" opacity=".3"/><circle cx="954" cy="192" r="3" fill="#f5e0a1" opacity=".3"/><circle cx="1150" cy="200" r="3" fill="#f5e0a1" opacity=".3"/><circle cx="963" cy="370" r="4" fill="#f5e0a1" opacity=".3"/><circle cx="1420" cy="315" r="2" fill="#f5e0a1" opacity=".3"/><circle cx="955" cy="220" r="3" fill="#f5e0a1" opacity=".3"/><circle cx="1559" cy="90" r="5" fill="#f5e0a1" opacity=".3"/><circle cx="974" cy="97" r="3" fill="#f5e0a1" opacity=".3"/><circle cx="1515" cy="161" r="3" fill="#f5e0a1" opacity=".3"/><circle cx="1023" cy="329" r="2" fill="#f5e0a1" opacity=".3"/><circle cx="944" cy="246" r="5" fill="#f5e0a1" opacity=".3"/><circle cx="1230" cy="135" r="3" fill="#f5e0a1" opacity=".3"/><circle cx="868" cy="437" r="5" fill="#f5e0a1" opacity=".3"/><circle cx="883" cy="139" r="2" fill="#f5e0a1" opacity=".3"/><circle cx="1038" cy="365" r="4" fill="#f5e0a1" opacity=".3"/><circle cx="1312" cy="349" r="5" fill="#f5e0a1" opacity=".3"/><circle cx="1053" cy="336" r="4" fill="#f5e0a1" opacity=".3"/><circle cx="1578" cy="244" r="4" fill="#f5e0a1" opacity=".3"/><circle cx="1181" cy="60" r="2" fill="#f5e0a1" opacity=".3"/><circle cx="1277" cy="299" r="3" fill="#f5e0a1" opacity=".3"/><circle cx="1404" cy="140" r="5" fill="#f5e0a1" opacity=".3"/><circle cx="1065" cy="171" r="4" fill="#f5e0a1" opacity=".3"/><circle cx="1063" cy="76" r="3" fill="#f5e0a1" opacity=".3"/><path d="M620 520C870 330 1140 530 1600 334" fill="none" stroke="#f5e0a1" stroke-width="1.2" opacity=".16"/></svg>